<svg data-v-fde0c5aa="" xmlns="http://www.w3.org/2000/svg" viewBox="0 0 300 300" class="iconAbove"><!----><defs data-v-fde0c5aa=""><!----></defs><rect data-v-fde0c5aa="" fill="#DCDA3C" x="0" y="0" width="300px" height="300px" class="logo-background-square"></rect><defs data-v-fde0c5aa=""><!----></defs><g data-v-fde0c5aa="" id="6501d6c3-4d14-4f1e-965e-c6b67e5474a6" fill="#ffffff" transform="matrix(2.7975036923838714,0,0,2.7975036923838714,16.698945456233513,163.62986853085806)"><path d="M2.38 13.64L1.18 13.64L1.94 3.63L3.95 3.63L6.43 10.62L6.81 11.93L6.95 11.93L7.32 10.62L9.80 3.63L11.82 3.63L12.58 13.64L11.26 13.64L10.73 5.78L10.67 4.35L10.54 4.35L10.14 5.71L7.44 13.44L6.23 13.44L3.49 5.73L3.08 4.35L2.95 4.35L2.91 5.77L2.38 13.64ZM15.20 13.64L15.20 3.63L18.59 3.63L18.59 3.63Q19.91 3.63 20.91 4.00L20.91 4.00L20.91 4.00Q21.92 4.36 22.59 4.99L22.59 4.99L22.59 4.99Q23.26 5.62 23.59 6.47L23.59 6.47L23.59 6.47Q23.93 7.33 23.93 8.30L23.93 8.30L23.93 8.30Q23.93 8.93 23.79 9.57L23.79 9.57L23.79 9.57Q23.65 10.21 23.35 10.80L23.35 10.80L23.35 10.80Q23.05 11.40 22.60 11.92L22.60 11.92L22.60 11.92Q22.15 12.43 21.53 12.82L21.53 12.82L21.53 12.82Q20.91 13.20 20.12 13.42L20.12 13.42L20.12 13.42Q19.33 13.64 18.37 13.64L18.37 13.64L15.20 13.64ZM16.54 4.69L16.54 12.58L18.61 12.58L18.61 12.58Q19.61 12.58 20.34 12.27L20.34 12.27L20.34 12.27Q21.08 11.95 21.56 11.41L21.56 11.41L21.56 11.41Q22.05 10.86 22.29 10.13L22.29 10.13L22.29 10.13Q22.52 9.41 22.52 8.58L22.52 8.58L22.52 8.58Q22.52 7.68 22.25 6.96L22.25 6.96L22.25 6.96Q21.97 6.23 21.44 5.73L21.44 5.73L21.44 5.73Q20.91 5.23 20.14 4.96L20.14 4.96L20.14 4.96Q19.36 4.69 18.37 4.69L18.37 4.69L16.54 4.69ZM34.80 13.64L29.52 13.64L29.52 3.63L30.86 3.63L30.86 12.58L35.01 12.58L34.80 13.64ZM41.34 12.72L41.34 12.72L41.34 12.72Q42.13 12.72 42.78 12.41L42.78 12.41L42.78 12.41Q43.44 12.09 43.91 11.54L43.91 11.54L43.91 11.54Q44.38 10.99 44.64 10.25L44.64 10.25L44.64 10.25Q44.90 9.52 44.90 8.66L44.90 8.66L44.90 8.66Q44.90 7.77 44.61 7.01L44.61 7.01L44.61 7.01Q44.33 6.25 43.84 5.71L43.84 5.71L43.84 5.71Q43.34 5.16 42.67 4.86L42.67 4.86L42.67 4.86Q42.01 4.55 41.24 4.55L41.24 4.55L41.24 4.55Q40.44 4.55 39.79 4.88L39.79 4.88L39.79 4.88Q39.14 5.20 38.67 5.76L38.67 5.76L38.67 5.76Q38.21 6.31 37.95 7.05L37.95 7.05L37.95 7.05Q37.69 7.79 37.69 8.63L37.69 8.63L37.69 8.63Q37.69 9.53 37.97 10.28L37.97 10.28L37.97 10.28Q38.25 11.03 38.75 11.57L38.75 11.57L38.75 11.57Q39.24 12.11 39.90 12.42L39.90 12.42L39.90 12.42Q40.57 12.72 41.34 12.72ZM41.11 13.78L41.11 13.78L41.11 13.78Q40.15 13.78 39.28 13.44L39.28 13.44L39.28 13.44Q38.40 13.10 37.74 12.46L37.74 12.46L37.74 12.46Q37.07 11.83 36.68 10.92L36.68 10.92L36.68 10.92Q36.29 10.01 36.29 8.89L36.29 8.89L36.29 8.89Q36.29 8.11 36.48 7.41L36.48 7.41L36.48 7.41Q36.67 6.71 37.02 6.11L37.02 6.11L37.02 6.11Q37.37 5.51 37.85 5.02L37.85 5.02L37.85 5.02Q38.34 4.54 38.92 4.20L38.92 4.20L38.92 4.20Q39.50 3.86 40.15 3.68L40.15 3.68L40.15 3.68Q40.80 3.49 41.50 3.49L41.50 3.49L41.50 3.49Q42.12 3.49 42.72 3.64L42.72 3.64L42.72 3.64Q43.32 3.79 43.86 4.08L43.86 4.08L43.86 4.08Q44.39 4.37 44.84 4.79L44.84 4.79L44.84 4.79Q45.29 5.22 45.62 5.76L45.62 5.76L45.62 5.76Q45.94 6.30 46.13 6.96L46.13 6.96L46.13 6.96Q46.31 7.62 46.31 8.38L46.31 8.38L46.31 8.38Q46.31 9.15 46.12 9.86L46.12 9.86L46.12 9.86Q45.93 10.56 45.59 11.16L45.59 11.16L45.59 11.16Q45.24 11.76 44.77 12.24L44.77 12.24L44.77 12.24Q44.29 12.73 43.71 13.07L43.71 13.07L43.71 13.07Q43.13 13.41 42.48 13.60L42.48 13.60L42.48 13.60Q41.82 13.78 41.11 13.78ZM56.71 8.96L56.71 13.13L56.71 13.13Q55.76 13.50 54.92 13.64L54.92 13.64L54.92 13.64Q54.08 13.78 53.40 13.78L53.40 13.78L53.40 13.78Q52.26 13.78 51.32 13.44L51.32 13.44L51.32 13.44Q50.39 13.09 49.72 12.45L49.72 12.45L49.72 12.45Q49.05 11.81 48.69 10.91L48.69 10.91L48.69 10.91Q48.33 10.00 48.33 8.89L48.33 8.89L48.33 8.89Q48.33 8.05 48.54 7.32L48.54 7.32L48.54 7.32Q48.74 6.59 49.11 5.99L49.11 5.99L49.11 5.99Q49.48 5.39 49.99 4.93L49.99 4.93L49.99 4.93Q50.51 4.46 51.13 4.15L51.13 4.15L51.13 4.15Q51.75 3.83 52.45 3.66L52.45 3.66L52.45 3.66Q53.16 3.49 53.91 3.49L53.91 3.49L53.91 3.49Q54.40 3.49 55.06 3.58L55.06 3.58L55.06 3.58Q55.73 3.66 56.48 3.89L56.48 3.89L56.25 5.07L56.12 5.13L56.12 5.13Q55.36 4.79 54.72 4.67L54.72 4.67L54.72 4.67Q54.08 4.55 53.62 4.55L53.62 4.55L53.62 4.55Q52.75 4.55 52.03 4.87L52.03 4.87L52.03 4.87Q51.31 5.19 50.80 5.74L50.80 5.74L50.80 5.74Q50.29 6.29 50.00 7.03L50.00 7.03L50.00 7.03Q49.72 7.77 49.72 8.61L49.72 8.61L49.72 8.61Q49.72 9.41 49.98 10.15L49.98 10.15L49.98 10.15Q50.24 10.90 50.74 11.47L50.74 11.47L50.74 11.47Q51.24 12.04 51.96 12.38L51.96 12.38L51.96 12.38Q52.68 12.72 53.62 12.72L53.62 12.72L53.62 12.72Q54.03 12.72 54.51 12.65L54.51 12.65L54.51 12.65Q55.00 12.57 55.51 12.41L55.51 12.41L55.51 8.96L56.71 8.96ZM67.53 8.96L67.53 13.13L67.53 13.13Q66.58 13.50 65.73 13.64L65.73 13.64L65.73 13.64Q64.89 13.78 64.22 13.78L64.22 13.78L64.22 13.78Q63.08 13.78 62.14 13.44L62.14 13.44L62.14 13.44Q61.20 13.09 60.54 12.45L60.54 12.45L60.54 12.45Q59.87 11.81 59.51 10.91L59.51 10.91L59.51 10.91Q59.14 10.00 59.14 8.89L59.14 8.89L59.14 8.89Q59.14 8.05 59.35 7.32L59.35 7.32L59.35 7.32Q59.55 6.59 59.92 5.99L59.92 5.99L59.92 5.99Q60.29 5.39 60.81 4.93L60.81 4.93L60.81 4.93Q61.33 4.46 61.94 4.15L61.94 4.15L61.94 4.15Q62.56 3.83 63.27 3.66L63.27 3.66L63.27 3.66Q63.97 3.49 64.72 3.49L64.72 3.49L64.72 3.49Q65.21 3.49 65.88 3.58L65.88 3.58L65.88 3.58Q66.54 3.66 67.29 3.89L67.29 3.89L67.07 5.07L66.93 5.13L66.93 5.13Q66.18 4.79 65.54 4.67L65.54 4.67L65.54 4.67Q64.89 4.55 64.44 4.55L64.44 4.55L64.44 4.55Q63.56 4.55 62.84 4.87L62.84 4.87L62.84 4.87Q62.13 5.19 61.61 5.74L61.61 5.74L61.61 5.74Q61.10 6.29 60.82 7.03L60.82 7.03L60.82 7.03Q60.54 7.77 60.54 8.61L60.54 8.61L60.54 8.61Q60.54 9.41 60.80 10.15L60.80 10.15L60.80 10.15Q61.06 10.90 61.55 11.47L61.55 11.47L61.55 11.47Q62.05 12.04 62.77 12.38L62.77 12.38L62.77 12.38Q63.50 12.72 64.44 12.72L64.44 12.72L64.44 12.72Q64.85 12.72 65.33 12.65L65.33 12.65L65.33 12.65Q65.81 12.57 66.32 12.41L66.32 12.41L66.32 8.96L67.53 8.96ZM71.78 3.63L71.78 13.64L70.44 13.64L70.44 3.63L71.78 3.63ZM75.91 13.64L74.69 13.64L74.69 3.63L76.64 3.63L81.36 10.47L82.04 11.70L82.18 11.70L82.09 10.30L82.09 3.63L83.31 3.63L83.31 13.64L82.17 13.64L76.57 5.58L75.95 4.39L75.82 4.39L75.91 5.78L75.91 13.64ZM94.12 8.96L94.12 13.13L94.12 13.13Q93.17 13.50 92.33 13.64L92.33 13.64L92.33 13.64Q91.49 13.78 90.82 13.78L90.82 13.78L90.82 13.78Q89.67 13.78 88.74 13.44L88.74 13.44L88.74 13.44Q87.80 13.09 87.13 12.45L87.13 12.45L87.13 12.45Q86.47 11.81 86.11 10.91L86.11 10.91L86.11 10.91Q85.74 10.00 85.74 8.89L85.74 8.89L85.74 8.89Q85.74 8.05 85.95 7.32L85.95 7.32L85.95 7.32Q86.15 6.59 86.52 5.99L86.52 5.99L86.52 5.99Q86.89 5.39 87.41 4.93L87.41 4.93L87.41 4.93Q87.92 4.46 88.54 4.15L88.54 4.15L88.54 4.15Q89.16 3.83 89.87 3.66L89.87 3.66L89.87 3.66Q90.57 3.49 91.32 3.49L91.32 3.49L91.32 3.49Q91.81 3.49 92.48 3.58L92.48 3.58L92.48 3.58Q93.14 3.66 93.89 3.89L93.89 3.89L93.67 5.07L93.53 5.13L93.53 5.13Q92.78 4.79 92.13 4.67L92.13 4.67L92.13 4.67Q91.49 4.55 91.03 4.55L91.03 4.55L91.03 4.55Q90.16 4.55 89.44 4.87L89.44 4.87L89.44 4.87Q88.72 5.19 88.21 5.74L88.21 5.74L88.21 5.74Q87.70 6.29 87.42 7.03L87.42 7.03L87.42 7.03Q87.14 7.77 87.14 8.61L87.14 8.61L87.14 8.61Q87.14 9.41 87.40 10.15L87.40 10.15L87.40 10.15Q87.66 10.90 88.15 11.47L88.15 11.47L88.15 11.47Q88.65 12.04 89.37 12.38L89.37 12.38L89.37 12.38Q90.10 12.72 91.03 12.72L91.03 12.72L91.03 12.72Q91.44 12.72 91.93 12.65L91.93 12.65L91.93 12.65Q92.41 12.57 92.92 12.41L92.92 12.41L92.92 8.96L94.12 8.96Z"></path></g><defs data-v-fde0c5aa=""><!----></defs><g data-v-fde0c5aa="" id="cdee9759-9bf9-4940-a7fe-2f8f8bfed2e8" stroke="none" fill="#141516" transform="matrix(1.7991445554946088,0,0,1.7991445554946088,121.21368711208626,97.82053066812938)"><path d="M16 32c8.837 0 16-7.163 16-16S24.837 0 16 0 0 7.163 0 16s7.163 16 16 16zM14.817 6.421h2v8.886h8.887v2H14.817V6.421zm-5.959.437h2v14.283h14.283v2H8.858V6.858z"></path></g><!----></svg>